PathFileType	4	(X/Y/Z)	/Users/mathieubourgeois/Desktop/Analyse/Traitement/Sujet_01/Transformed_Static_Sujet_01_Tpose.trc
DataRate	CameraRate	NumFrames	NumMarkers	Units	OrigDataRate	OrigDataStartFrame	OrigNumFrames
120.000000	120.000000	4	35	mm	120.000000	0	226
Frame#	Time	LFHD			RFHD			LBHD			RBHD			RSHO			LSHO			CLAV			STRN			T10			RHUM			LHUM			LRAD			RRAD			RWRA			RWRB			RCAR			LCAR			LWRA			LWRB			RFWT			LFWT			LBWT			RBWT			RKNI			LKNI			RKNE			LKNE			RANE			RANI			LANI			LANE			LHEE			RHEE			RTOE			LTOE			
		X1	Y1	Z1	X2	Y2	Z2	X3	Y3	Z3	X4	Y4	Z4	X5	Y5	Z5	X6	Y6	Z6	X7	Y7	Z7	X8	Y8	Z8	X9	Y9	Z9	X10	Y10	Z10	X11	Y11	Z11	X12	Y12	Z12	X13	Y13	Z13	X14	Y14	Z14	X15	Y15	Z15	X16	Y16	Z16	X17	Y17	Z17	X18	Y18	Z18	X19	Y19	Z19	X20	Y20	Z20	X21	Y21	Z21	X22	Y22	Z22	X23	Y23	Z23	X24	Y24	Z24	X25	Y25	Z25	X26	Y26	Z26	X27	Y27	Z27	X28	Y28	Z28	X29	Y29	Z29	X30	Y30	Z30	X31	Y31	Z31	X32	Y32	Z32	X33	Y33	Z33	X34	Y34	Z34	X35	Y35	Z35	

1	0	7.643851757049545	1541.556030273438	129.3102569580077	33.24515151977536	1531.5556640625	252.3392791748046	-143.2057037353516	1571.912719726562	163.6482086181639	-110.1997146606446	1560.544921875	290.5485534667968	-128.7210845947266	1409.177978515625	345.0982666015624	-156.6519317626953	1398.5693359375	96.45918273925771	-72.22744750976565	1362.857421875	194.1488189697265	-27.85349273681643	1266.05859375	205.0106048583984	-235.3401184082032	1210.860717773438	240.9967346191405	-111.7310409545899	1240.058471679688	590.2808837890624	-144.9551086425781	1235.860961914062	-159.807098388672	-190.9721221923828	1273.6904296875	-178.4320373535157	-165.566375732422	1275.410888671875	605.7274169921874	-177.6054534912111	1286.41259765625	827.6161499023436	-169.0398559570314	1224.918579101562	823.0498046874999	-220.8188018798829	1219.578979492188	900.9830932617186	-227.8368988037109	1226.991821289062	-475.3666687011719	-186.0423278808593	1278.904907226562	-402.5091552734376	-193.3102569580078	1212.211791992188	-392.7491149902344	-44.86576843261723	930.4219970703125	342.4521179199218	-51.89966201782228	943.8114624023438	117.1036148071288	-235.1534271240235	946.1165161132812	186.8998260498046	-225.6961669921875	955.5269775390625	304.0733947753906	-180.7806701660157	434.8798217773438	273.0342712402344	-152.4631042480469	472.5209350585938	211.7201690673828	-161.4157104492188	469.4682922363281	389.9977111816406	-170.4091949462891	459.8314819335938	84.63990783691402	-188.5663757324219	119.8405456542969	379.5513000488281	-175.7961578369141	123.7302169799805	300.77001953125	-177.7469024658203	122.3979568481445	189.650894165039	-194.0320587158203	112.9636917114258	115.1095428466797	-252.2111053466797	63.30810165405274	163.3721618652343	-249.395980834961	75.09687805175783	345.8267822265624	-1.64379167556767	61.55539321899416	354.8451538085938	0.443042755126937	56.57429122924805	131.8074645996094	
2	0.008333333333333333	7.416160583496078	1541.944580078125	129.2913818359374	33.087287902832	1531.91162109375	252.2556610107421	-143.4939727783203	1571.905639648438	163.7009887695311	-110.4361648559571	1560.492065429688	290.5641784667968	-128.6636810302735	1409.22802734375	345.034210205078	-156.5139465332031	1398.588623046875	96.37866973876943	-72.08341217041018	1362.828369140625	194.0859069824218	-27.76075363159182	1266.079467773438	204.9786987304687	-235.2705230712891	1210.908447265625	240.9380035400389	-111.9399490356446	1240.128540039062	590.2734985351561	-144.9085235595703	1235.91064453125	-159.9076995849611	-190.8919982910156	1273.753051757812	-178.5224456787111	-165.768783569336	1275.483520507812	605.6979370117186	-178.015838623047	1286.562255859375	827.5054931640624	-169.4627532958986	1225.101684570312	823.0190429687499	-221.3701477050782	1219.800415039062	900.8860473632811	-227.8711547851562	1227.161376953125	-475.4457092285157	-186.0495147705078	1279.032470703125	-402.6016845703126	-193.3221435546874	1212.347534179688	-392.8530883789063	-44.88709259033207	930.4282836914062	342.4798278808593	-51.8609085083008	943.8001708984375	117.1325912475585	-235.1431579589844	946.1203002929688	186.8809509277343	-225.7061920166016	955.5274047851562	304.0379333496093	-180.7843170166016	434.87060546875	273.039794921875	-152.4294891357422	472.5072937011719	211.7275695800781	-161.3913574218751	469.46533203125	389.9980468749999	-170.3648681640625	459.8428955078125	84.64785003662105	-188.5577392578126	119.8273620605469	379.5551147460938	-175.80419921875	123.7241592407227	300.7796630859375	-177.7585754394532	122.3961791992188	189.6631469726562	-194.0319671630859	112.9510726928711	115.1010055541992	-252.2053375244141	63.29509353637696	163.369644165039	-249.3949432373047	75.10337066650392	345.8233947753906	-1.635327339172407	61.55033493041994	354.8390808105469	0.4482295215129691	56.57923889160157	131.8148803710938	
3	0.01666666666666667	7.203758239746078	1542.352661132812	129.2406005859374	32.92249679565427	1532.241333007812	252.1954193115234	-143.7826843261719	1571.90087890625	163.7590789794921	-110.6505661010743	1560.42919921875	290.5885009765624	-128.6074829101563	1409.267578125	344.9716491699218	-156.3878173828125	1398.598754882812	96.31244659423818	-72.26148223876956	1359.503051757812	193.349868774414	-27.66215515136721	1266.113525390625	204.9749450683593	-235.2120056152344	1210.949584960938	240.8842010498046	-112.1382141113282	1240.184692382812	590.2640380859374	-144.8919677734375	1235.951171875	-159.9935455322267	-190.8638610839843	1273.819946289062	-178.615692138672	-165.9820404052735	1275.524536132812	605.6278076171874	-178.4273834228517	1286.714599609375	827.4080810546874	-169.858856201172	1225.305786132812	822.9612426757811	-221.8282470703126	1219.993530273438	900.7978515624999	-227.9326782226562	1227.328979492188	-475.5102233886719	-186.062271118164	1279.153686523438	-402.6784362792969	-193.3409423828124	1212.474487304688	-392.9457092285157	-44.9087295532227	930.425537109375	342.5074157714843	-51.82745742797853	943.7916259765625	117.1689224243163	-235.1175384521485	946.1341552734375	186.8419342041015	-225.7276306152344	955.5465698242188	304.0225830078124	-180.7431793212891	434.8631286621094	273.0346984863281	-152.3930206298828	472.4957885742188	211.7358398437499	-161.3897399902344	469.4577026367188	390.0015563964843	-170.3184509277344	459.8383178710938	84.6454696655273	-188.5659637451172	119.8257064819336	379.5533447265625	-175.7955017089844	123.7171936035156	300.7781372070312	-177.7484436035157	122.3882369995117	189.6634521484375	-194.0260925292969	112.9589920043945	115.0943374633789	-252.2021484375	63.29974365234376	163.3703460693359	-249.4051971435547	75.10153198242189	345.8233032226562	-1.639416933059736	61.55279541015627	354.8397827148438	0.4435556232929068	56.56906890869141	131.8105163574219	
4	0.025	7.126708507537826	1542.019653320312	129.2230377197265	32.76692581176755	1532.578125	252.1257781982421	-144.0630493164063	1571.552124023438	163.832794189453	-110.7960968017579	1559.945068359375	290.5818481445311	-128.4692840576172	1409.2021484375	344.944610595703	-156.2666778564453	1398.646850585938	96.26303863525381	-71.84848785400393	1362.772583007812	193.9610290527343	-27.12303543090823	1265.932006835938	204.6892852783202	-235.1398315429688	1210.994140625	240.8128204345702	-112.3198242187501	1240.236938476562	590.2357177734374	-144.8618774414062	1236.000854492188	-160.0861968994142	-190.8306884765625	1273.890991210938	-178.6823730468751	-165.9840087890626	1276.181640625	605.4243164062499	-178.8513793945314	1286.840576171875	827.3036499023436	-172.0029602050782	1224.222290039062	823.4624633789061	-222.9439239501954	1220.313354492188	900.4476928710936	-228.483901977539	1227.198852539062	-475.2320556640626	-186.2904357910156	1279.131713867188	-402.6289062500001	-193.4027557373046	1212.60009765625	-393.0156555175782	-44.95371627807621	930.4378051757812	342.5303039550781	-51.7888526916504	943.7882080078125	117.2075424194335	-235.1031951904297	946.1358642578125	186.8258056640624	-225.7375793457032	955.5541381835938	304.0184326171874	-180.688949584961	434.8643493652344	273.0248718261719	-152.1001892089844	473.0733947753906	212.6529388427734	-161.3892822265626	469.4733276367188	389.9990234374999	-169.9403076171875	458.8968811035156	85.53385925292964	-189.0559387207032	120.3067779541016	379.4181213378906	-175.7928161621094	123.7232894897461	300.7711486816406	-177.6712036132813	122.3069229125977	189.7430877685547	-194.0355987548828	112.9666137695312	115.0964889526367	-252.2027130126953	63.29922485351563	163.3705902099609	-249.4010162353516	75.10691070556642	345.8208007812499	-1.64572107791905	61.55923080444338	354.8416748046875	0.4371524155139762	56.58799362182618	131.8113403320312	
